<svg width="41" height="41" viewBox="0 0 41 41" fill="none" xmlns="http://www.w3.org/2000/svg">
<g clip-path="url(#clip0_0_747)">
<path d="M7.16669 1.8488C7.16669 0.928322 7.91288 0.182129 8.83335 0.182129C9.75383 0.182129 10.5 0.928321 10.5 1.8488V38.5155C10.5 39.4359 9.75383 40.1821 8.83335 40.1821C7.91288 40.1821 7.16669 39.4359 7.16669 38.5155V1.8488Z" fill="#777E90"/>
<path d="M23.8333 8.51542C23.8333 7.59495 24.5795 6.84875 25.5 6.84875H32.8033C34.0422 6.84875 34.8481 8.15261 34.294 9.26078L30.8727 16.1034C30.6381 16.5726 30.6381 17.1249 30.8727 17.5941L34.294 24.4367C34.8481 25.5449 34.0422 26.8488 32.8033 26.8488H27.1666C25.3257 26.8488 23.8333 25.3564 23.8333 23.5154V8.51542Z" fill="#777E90"/>
<path d="M13.8333 5.18217C13.8333 4.26169 14.5795 3.5155 15.5 3.5155H17.1666C19.0076 3.5155 20.5 5.00789 20.5 6.84884V21.8488C20.5 22.7693 19.7538 23.5155 18.8333 23.5155H15.5C14.5795 23.5155 13.8333 22.7693 13.8333 21.8488V5.18217Z" fill="#777E90"/>
</g>
<defs>
<clipPath id="clip0_0_747">
<rect width="40" height="40" fill="white" transform="translate(0.5 0.182129)"/>
</clipPath>
</defs>
</svg>
